<?xml version="1.0" encoding="utf-8"?>
<!-- Svg Vector Icons : http://www.onlinewebfonts.com/icon -->
<!DOCTYPE svg PUBLIC "-//W3C//DTD SVG 1.1//EN" "http://www.w3.org/Graphics/SVG/1.1/DTD/svg11.dtd">
<svg version="1.1" xmlns="http://www.w3.org/2000/svg" xmlns:xlink="http://www.w3.org/1999/xlink" x="0px" y="0px" viewBox="0 0 1000 1000" enable-background="new 0 0 1000 1000" xml:space="preserve">
<metadata> Svg Vector Icons : http://www.onlinewebfonts.com/icon </metadata>
<g><path d="M980,511.7c0-58.5-22.1-215.6-134.4-215.6c-52.1,0-124.4,36.7-186.8,81.8c45.6-58.3,81.3-130.3,81.3-195.2c0-138.7-80-156.6-153.6-170.4C514.3-1.3,406.6,44.1,406.6,182.7c0,54.1,3.5,113.1,12.1,165.1c-18.3-22.1-40.5-45.4-69.5-75.9c-68.1-71.3-114.7-182.2-189.7-126.2C83,202.8,21.5,378.2,126.8,414.1c39.6,13.5,111,35.7,179.7,51.8c-23.5,1.3-50,2.9-79.8,2.9C114.1,468.8,20,535.9,20,609.6c0,73.6,0.5,159.2,113.2,159.2c67,0,171.4-68.7,239.1-137.6c-33.3-25.7-54.3-63.8-54.3-106.2c0-77.5,70.4-140.4,157.2-140.4c86.8,0,157.1,62.8,157.1,140.4c0,77.5-70.4,140.3-157.1,140.3c-39,0-74.7-12.7-102.2-33.7c-63.6,61.7-143.7,190-143.7,259.5c0,96.6,125.8,98.9,177.5,98.9c51.7,0,65.1-56.6,82.1-151.7c6.5-36.3,8-74.7,5.1-110c43.7,88.6,153.8,205.8,227,205.8c93.1,0,153.5-61.5,153.5-140.8c0-68-117.6-179-209.8-209.3c33.5,2.1,69.7,2.4,104.2,2.4C881.2,586.4,980,570.2,980,511.7z"/><path d="M555.4,511.7c0-35.6-33.3-64.5-74.4-64.5c-41.1,0-74.4,28.9-74.4,64.5c0,35.6,33.3,64.5,74.4,64.5C522.1,576.2,555.4,547.3,555.4,511.7z"/></g>
</svg>