<?xml version="1.0" encoding="utf-8"?>
<!-- Svg Vector Icons : http://www.onlinewebfonts.com/icon -->
<!DOCTYPE svg PUBLIC "-//W3C//DTD SVG 1.1//EN" "http://www.w3.org/Graphics/SVG/1.1/DTD/svg11.dtd">
<svg version="1.1" xmlns="http://www.w3.org/2000/svg" xmlns:xlink="http://www.w3.org/1999/xlink" x="0px" y="0px" viewBox="0 0 1000 1000" enable-background="new 0 0 1000 1000" xml:space="preserve">
<metadata> Svg Vector Icons : http://www.onlinewebfonts.com/icon </metadata>
<g><path d="M921,387.2c-93.9-75.5-263.2-24.5-263.2-24.5s46.9-61.2,118.3-136.7c71.4-75.5-2-167.3-71.4-206.1c-69.4-38.8-175.5,10.2-230.6,65.3C419.1,140.3,413,279,413,279C294.6-49.5,43.7,154.6,60,279c16.3,124.5,197.9,206.1,197.9,206.1C39.6,503.5,2.9,585.1,11,664.7c8.2,79.6,106.1,169.3,216.3,157.1c110.2-12.2,181.6-132.6,181.6-132.6c-49,299.9,77.5,314.2,136.7,302c59.2-12.2,104.1-32.6,157.1-114.3c53-81.6-44.9-259.1-44.9-259.1c169.3,106.1,269.3,77.5,304,18.4C996.5,576.9,1014.9,462.7,921,387.2z M572.5,555.9c-1.5,1.1-3.3,1.6-5.1,1.6c-2.7,0-5.4-1.3-7.1-3.7c-12.7-17.8-44.2-35.7-68.5-39.1c1.5,4.1,2.3,8.5,2.4,13.1c0.7,37.3-47.2,71.9-49.2,73.4c-1.5,1.1-3.3,1.6-5.1,1.6c-2.7,0-5.4-1.3-7.1-3.7c-2.8-3.9-1.9-9.4,2-12.2c11-7.9,42.4-35.6,41.9-58.9c-0.1-4.4-1.3-8.4-3.7-12.2c-1.8,0.7-3.4,1.7-4.8,2.9c-25.5,23.1-92.6,2.1-100.1-0.4c-4.6-1.5-7.1-6.4-5.6-11c1.5-4.6,6.4-7.1,11-5.6c24.9,8.1,69.4,16.4,83,4.1c1-0.9,2-1.7,3.1-2.5c-45.3-31.3-39.3-86.5-39-88.8c0.6-4.8,4.9-8.2,9.7-7.6c4.8,0.6,8.2,4.9,7.6,9.7c-0.2,1.9-4.8,45.7,29.7,71.1c4-18.1,15.2-36.1,33.2-52.9c18.3-17.1,38.5-28,43-29.3c5-1.4,9,1.3,10.5,4.5c1.6,3.2,1.4,8-2.9,11.3c-1.4,1.1-3,1.7-4.6,1.8c-11.5,5.6-58.8,35.2-63.2,73.6c2.5,0,5.1,0.1,7.8,0.4c29.7,3.2,66.9,24,82.9,46.6C577.3,547.7,576.4,553.1,572.5,555.9z"/></g>
</svg>