<?xml version="1.0" encoding="utf-8"?>
<!-- Svg Vector Icons : http://www.onlinewebfonts.com/icon -->
<!DOCTYPE svg PUBLIC "-//W3C//DTD SVG 1.1//EN" "http://www.w3.org/Graphics/SVG/1.1/DTD/svg11.dtd">
<svg version="1.1" xmlns="http://www.w3.org/2000/svg" xmlns:xlink="http://www.w3.org/1999/xlink" x="0px" y="0px" viewBox="0 0 1000 1000" enable-background="new 0 0 1000 1000" xml:space="preserve">
<metadata> Svg Vector Icons : http://www.onlinewebfonts.com/icon </metadata>
<g><path d="M804.2,439.3c-62.7,0-141.1,16.1-202.7,31.8c-2.1-7.5-5.1-14.7-8.8-21.5c54.6-32.5,121.4-76.5,165.7-120.8c86.5-86.5,113.8-149.8,88.5-175.1c-25.3-25.3-88.6,2-175.1,88.5c-44.2,44.2-88.3,110.9-120.7,165.5c-6.7-3.7-13.9-6.7-21.5-8.9c15.7-61.5,31.7-139.8,31.7-202.3C561.3,74,535.8,10,500,10c-35.8,0-61.3,64-61.3,186.4c0,62.6,16,140.8,31.7,202.3c-7.5,2.2-14.7,5.2-21.5,8.9c-32.5-54.6-76.5-121.3-120.7-165.5c-86.5-86.5-149.8-113.8-175.1-88.5c-25.3,25.3,2,88.6,88.5,175.1c44.3,44.3,111,88.3,165.7,120.8c-3.7,6.7-6.6,13.9-8.8,21.5c-61.6-15.7-140-31.8-202.7-31.8C73.5,439.3,10,464.2,10,500c0,35.8,63.5,61.8,185.8,61.8c62.8,0,141.3-16.1,203-31.8c2.2,7.5,5.2,14.6,8.9,21.3C353,583.7,286,627.9,241.6,672.3c-86.5,86.5-113.8,149.8-88.5,175.1c25.3,25.3,88.6-2,175.1-88.5c44.5-44.5,88.7-111.6,121.2-166.3c6.7,3.7,13.8,6.6,21.3,8.7c-15.7,61.7-31.9,140.5-31.9,203.3c0,122.3,25.4,185.3,61.3,185.3s61.3-62.9,61.3-185.3c0-62.9-16.2-141.7-31.9-203.3c7.5-2.2,14.6-5.1,21.3-8.7c32.5,54.7,76.7,121.8,121.2,166.3c86.5,86.5,149.7,113.8,175.1,88.5s-2-88.6-88.5-175.1C714,627.9,647,583.7,592.3,551.2c3.7-6.7,6.7-13.8,8.9-21.3c61.6,15.7,140.2,31.8,203,31.8c122.3,0,185.8-25.4,185.8-61.3C990,464.7,926.5,439.3,804.2,439.3z"/><path d="M588.5,714.3c0,0,15.4,89.8,4.1,166.1c25.5,47.6,57.2,77.1,80.2,77.1c3.8,0,7.5-0.7,11-2.1c26-10.5,31.5-54.7,10.6-127.9C640.7,788.8,588.5,714.3,588.5,714.3z"/><path d="M411.4,286.3c0,0-16.9-89.3-4-165.6c-29.1-51.4-57.2-77.1-80.2-77.1c-3.8,0-7.5,0.7-11,2.1c-26,10.5-31.7,50.8-10.7,127.8C352.1,208.5,411.4,286.3,411.4,286.3z"/><path d="M286.3,589.1c0,0-90.4,13.4-166.1,4.1c-60,33.9-85,66.5-75,91.2c6.1,15.2,23.9,23.4,52.2,23.4c20.1,0,49.1-3.4,75.8-12.7C211.2,642.6,286.3,589.1,286.3,589.1z"/><path d="M713.8,412c0,0,89.2-15.9,166.1-4c60-33.9,85-66.5,75-91.2c-6.1-15.2-23.9-23.4-52.2-23.4c-20.1,0-46.8,3.8-75.8,12.7C787.3,358.2,713.8,412,713.8,412z"/><path d="M296.9,834.6c-18.4,66.4-13,107.1,11.5,117.4c3.7,1.6,7.5,2.3,11.5,2.3c24.3,0,54-28.7,86.5-85.3c-9.2-70.5,5.1-154.8,5.1-154.8S364.4,782.9,296.9,834.6z"/><path d="M702.9,167.2C721.3,97.5,716.3,59.4,691.7,49c-3.7-1.6-7.5-2.3-11.5-2.3c-24.3,0-57.3,31.3-86.5,85.3c9.9,50.1-5.2,155.4-5.2,155.4S639.3,212.3,702.9,167.2z"/><path d="M131.5,406.9c65-8.6,154.6,5.1,154.6,5.1s-81.4-62.8-120.3-114.6c-22.3-8.5-49.2-10.9-67.3-10.9c-26.8,0-43.8,7.8-50.1,22.4C37.5,334.7,70.3,374.5,131.5,406.9z"/><path d="M868.5,594.2c-55.4,12.3-154.8-5.1-154.8-5.1s75.8,56,120.3,114.6c26.2,9.2,49.3,11,67.4,11c26.8,0,43.8-7.8,50-22.4C962.5,666.4,933.7,630.8,868.5,594.2z"/></g>
</svg>