<?xml version="1.0" encoding="utf-8"?>
<!-- Svg Vector Icons : http://www.onlinewebfonts.com/icon -->
<!DOCTYPE svg PUBLIC "-//W3C//DTD SVG 1.1//EN" "http://www.w3.org/Graphics/SVG/1.1/DTD/svg11.dtd">
<svg version="1.1" xmlns="http://www.w3.org/2000/svg" xmlns:xlink="http://www.w3.org/1999/xlink" x="0px" y="0px" viewBox="0 0 1000 1000" enable-background="new 0 0 1000 1000" xml:space="preserve">
<metadata> Svg Vector Icons : http://www.onlinewebfonts.com/icon </metadata>
<g><g transform="translate(0.000000,511.000000) scale(0.100000,-0.100000)"><path d="M4655.1,4986.4c-211.8-29.9-564.1-154.3-771.3-274c-492.7-280.9-902.5-798.9-1043-1321.6l-43.8-161.2l-78.3,6.9c-43.7,2.3-227.9,6.9-412.1,9.2c-276.3,4.6-368.4-4.6-536.5-46c-414.4-103.6-725.3-274-1013-552.6c-405.2-396-621.7-874.9-653.9-1455.1C57.3,358.6,494.7-375.8,1328.2-873.1c110.5-66.8,209.5-122,223.3-126.6c11.5-4.6-32.2-96.7-99-202.6c-239.4-386.8-416.7-833.5-453.6-1155.8c-11.5-89.8-11.5-264.8-2.3-386.8c119.7-1416,1547.2-2369.2,2907.9-1940.9c359.2,112.8,640.1,283.2,918.7,561.8l177.3,177.3l179.6-177.3c276.3-278.6,557.2-449,916.3-561.8c1363-430.6,2788.2,524.9,2907.9,1947.8c9.2,119.7,9.2,290.1-2.3,379.9c-36.8,322.3-214.1,769-453.6,1153.5c-71.4,115.1-110.5,200.3-94.4,207.2C9064.2-654.4,9388.8-362,9630.6,57c469.7,824.2,313.1,1913.3-375.3,2576.4c-294.7,285.5-587.1,451.3-976.2,554.9c-202.6,52.9-267.1,59.9-573.3,57.6c-188.8-2.3-379.9-6.9-423.7-9.2c-76-6.9-78.3-4.6-117.4,131.2C6851.6,4466.1,5794.8,5147.6,4655.1,4986.4z M5297.5,4012.5c331.6-78.3,672.3-338.5,828.9-630.8c122.1-230.2,168.1-455.9,149.7-741.4c-13.8-216.4-9.2-251,32.2-336.2c96.7-186.5,287.8-299.3,474.3-278.6c53,6.9,181.9,53,285.5,105.9c253.3,124.3,485.8,175,727.6,158.9c660.8-46,1142-552.6,1142-1197.2c0-610.1-483.5-1119-1305.5-1372.2c-168.1-52.9-246.4-89.8-303.9-145c-204.9-200.3-209.5-453.6-9.2-697.6c310.8-384.5,635.4-955.5,711.4-1252.5c89.8-356.9-69.1-798.9-393.7-1105.1c-407.5-379.9-971.6-453.6-1471.2-191.1c-391.4,204.9-679.2,665.4-681.5,1089c0,460.5-504.2,690.7-819.7,377.6c-105.9-105.9-147.3-211.8-147.3-379.9c-2.3-287.8-156.6-640.1-379.9-863.4c-752.9-755.2-2035.3-315.4-2178.1,746c-20.7,149.7-18.4,207.2,11.5,326.9c73.7,292.4,303.9,713.7,624,1137.4c223.3,294.7,260.2,393.7,216.4,571c-18.4,78.3-57.6,147.4-119.7,216.4c-78.3,85.2-119.7,108.2-317.7,168.1c-789.7,244-1264,713.7-1303.1,1293.9c-25.3,361.5,87.5,670,336.1,916.3c179.6,177.3,326.9,260.2,568.7,322.3c324.6,82.9,649.3,41.4,973.9-126.6c87.5-46,195.7-89.8,241.7-96.7c188.8-29.9,432.9,110.5,504.2,287.8c27.6,66.8,34.5,168.1,34.5,386.8c-4.6,347.7,36.8,508.8,188.8,741.4C4220,3913.5,4765.6,4136.9,5297.5,4012.5z"/><path d="M4694.3,2044c-301.6-50.7-596.3-175-833.5-350c-985.4-729.8-1091.3-2115.9-227.9-2972.4c877.2-868,2320.8-711.5,3004.6,329.2c195.7,294.7,320,711.4,320,1059.1c0,626.3-326.9,1238.7-858.8,1614C5718.8,1991,5152.4,2120,4694.3,2044z M5244.5,1067.8c432.8-115.1,746-515.7,746-957.8c0-253.3-96.7-485.8-278.6-679.2C5180.1-1131,4243-884.7,4042.7-131.8c-135.8,508.8,184.2,1054.5,704.5,1199.5C4887.7,1106.9,5101.8,1106.9,5244.5,1067.8z"/></g></g>
</svg>