<?xml version="1.0" encoding="utf-8"?>
<!-- Svg Vector Icons : http://www.onlinewebfonts.com/icon -->
<!DOCTYPE svg PUBLIC "-//W3C//DTD SVG 1.1//EN" "http://www.w3.org/Graphics/SVG/1.1/DTD/svg11.dtd">
<svg version="1.1" xmlns="http://www.w3.org/2000/svg" xmlns:xlink="http://www.w3.org/1999/xlink" x="0px" y="0px" viewBox="0 0 1000 1000" enable-background="new 0 0 1000 1000" xml:space="preserve">
<metadata> Svg Vector Icons : http://www.onlinewebfonts.com/icon </metadata>
<g><g transform="translate(0.000000,511.000000) scale(0.100000,-0.100000)"><path d="M4624.7,4835.1c-401.3-90.9-705.8-259-982.5-545.6c-496.2-514-662.3-1235.6-434.9-1899.8c35.6-106.7,63.3-193.7,59.3-193.7c-3.9,0-63.3,45.5-130.5,100.8c-162.1,130.5-476.4,282.7-697.8,338c-138.4,33.6-235.2,43.5-444.8,43.5c-316.3,0-525.9-43.5-782.9-164.1c-429-201.7-719.6-486.3-919.3-901.5C-15.1,978.2,50.1,250.7,461.3-326.5c120.6-168,369.7-395.4,559.5-510c302.5-179.9,727.5-286.7,1047.8-262.9c81.1,5.9,142.3,7.9,138.4,4c-3.9-5.9-61.3-43.5-126.5-85C1509.1-1552.2,1173-2281.7,1262-2963.7c87-676.1,482.4-1215.8,1097.2-1504.4c257-120.6,464.6-164.1,780.9-164.1c298.5,0,504.1,39.5,755.2,146.3c324.2,138.4,662.3,429,850.1,731.4c90.9,146.3,191.8,383.5,235.2,553.5l21.7,89l39.5-146.3c79.1-306.4,243.2-589.1,478.4-824.4c749.2-747.3,1963.1-741.3,2692.5,15.8c239.2,249.1,371.7,476.4,474.5,816.5c49.4,160.1,55.4,209.5,55.4,494.2c2,270.8-4,340-43.5,482.4c-55.4,205.6-152.2,415.1-268.9,593.1c-106.7,158.2-363.7,409.2-523.9,512l-116.6,73.2l251.1,2c314.3,2,529.8,51.4,802.6,185.8c478.4,233.3,836.2,660.3,990.4,1178.2c71.2,237.2,87,608.9,37.6,867.8c-73.2,391.4-237.2,697.8-531.8,988.5c-235.2,233.3-434.9,359.8-717.6,456.7c-630.6,213.5-1344.3,79.1-1826.6-344l-71.2-63.3l65.2,193.7c89,257,114.7,440.9,100.8,705.8c-13.8,259-63.3,466.6-168,689.9c-247.1,527.8-688,897.5-1249.4,1049.7C5294.8,4862.8,4798.6,4874.7,4624.7,4835.1z M5383.8,1670.1c682-130.5,1231.6-640.5,1447.1-1346.3c47.4-160.1,53.4-201.6,53.4-510c0-310.4-4-349.9-55.4-514C6593.7-1477.1,5967-1997,5180.2-2074.1c-432.9-41.5-850.1,63.3-1221.7,306.4c-395.4,257-670.2,646.4-802.6,1132.8c-59.3,217.5-59.3,680.1,0,897.5c132.5,484.3,401.3,863.9,800.6,1130.8C4381.5,1676.1,4859.9,1769,5383.8,1670.1z"/></g></g>
</svg>