<?xml version="1.0" encoding="utf-8"?>
<!-- Svg Vector Icons : http://www.onlinewebfonts.com/icon -->
<!DOCTYPE svg PUBLIC "-//W3C//DTD SVG 1.1//EN" "http://www.w3.org/Graphics/SVG/1.1/DTD/svg11.dtd">
<svg version="1.1" xmlns="http://www.w3.org/2000/svg" xmlns:xlink="http://www.w3.org/1999/xlink" x="0px" y="0px" viewBox="0 0 1000 1000" enable-background="new 0 0 1000 1000" xml:space="preserve">
<metadata> Svg Vector Icons : http://www.onlinewebfonts.com/icon </metadata>
<g><path d="M979.7,364.6c2.6,25.1,2.5,50.4-0.4,76l-3.9,44c0,36.2-19.9,66.9-59.6,92.3c-42.4,27-96.3,40.5-161.9,40.5c-81.4,0-150.5-44-207.3-132c-22.7-35.3-40.6-73.7-53.6-115.4c-6.6-20.8-11.5-40.5-14.6-58.9l-3.5-36.9v-8.9c0-75.7,17.3-132.9,51.8-171.4c34.3-38.1,84.8-57.1,151.6-57.1c44.7,0,90.6,16,137.7,47.9c49,32.7,86.4,74.3,112.2,124.9C957.6,265.8,974.7,317.5,979.7,364.6z M229.7,520l-7.5-0.3c0-22.2,0.4-36.8,1.1-43.7c2.4-25.8,8.4-51.4,18.1-76.7c9.7-25.6,23.9-50.4,42.6-74.5c18.7-24.1,42.6-43.2,71.7-57.1l21.3-9.6c10.4-5,19.2-8.3,26.3-9.9l39.4-8.5l2.1,87.3c3.3,30.5,13.2,66.2,29.8,107.2l13.8,27.7c25.8,47.8,55,87.9,87.7,120.3c34.3,33.6,69.8,56.1,106.5,67.4l-4.6,6c-42.1,51.6-101.5,85.8-178.2,102.6l12.4-28.4c4.5-13.7,7.7-28.9,9.6-45.4l2.1-21.3c0-35.7-9-68-27-96.9c-5.7-9.5-12.1-18.2-19.2-26.3l-3.2-2.1c-6.9-5.2-23.8-14.9-50.8-29.1L377,484.9l-65.3-2.1C278.3,488,251,500.4,229.7,520z M711,675.5l24.1-17h4.6c69.8,0,134-14.9,192.4-44.7c18.5-9.2,34.1-19.2,46.8-29.8c7.3,16.1,11,39.6,11,70.7c0,40.7-12.1,78-36.2,111.8c-45.9,63.9-127,95.8-243.1,95.8l-68.9-5.7l1.8-23.8c0-24.2-9-47.7-27-70.6C654,740.4,685.5,711.5,711,675.5z M456.9,141.7c-4.3,17.8-7.9,38.3-11,61.8l-35.1,3.6l-46.5,17c-19.4,6.9-35.6,14.9-48.6,24.1c-13,9.5-27,20.6-41.9,33.4l-40.5,50.8c-9.7,13.2-18.5,31.7-26.3,55.4c-7.8,23.4-13.3,49.5-16.3,78.1c-1.9,16.6-2.8,47.4-2.8,92.6l0.7,34.1c-56.1-6.2-98.7-22.5-127.8-49C26.9,512.7,10,467.6,10,408.3c0-88.7,23.4-162.9,70.3-222.5c47.3-59.6,72.2-86.7,74.5-81.3c65.1-38.8,121.7-57.9,170-57.2c19.4,0.2,36.8,2.6,52.2,7.1c13.7,4.3,27.3,10.5,40.8,18.8l49.7,31.2L456.9,141.7z M275.1,528.2c15.6-9.4,34.7-14.2,57.2-14.2l44.7-0.7c27.9,6.4,51.3,23.3,70.3,50.8c4,0.9,13.1,17.8,27.3,50.4c8.5,16.3,12.8,33,12.8,50.1c0,16.3-2,33.7-6,52.2c-4.5,12.8-16.3,24.7-35.5,35.9c-18.9,11.4-41.9,17-68.9,17c-17.3-2.8-29.9-7-38-12.4l-21.7-15.3c22.3-3.3,37.6-16.7,46.1-40.1c3.1-8.3,5-17.6,5.7-28V661c0-35.3-7.7-64.4-23.1-87.3c-12.5-19.2-29.3-32.5-50.4-40.1C288.6,531,281.8,529.2,275.1,528.2z M249.2,648.2c0,11.8,2.7,24.6,8.2,38.3c-17.3-17.8-28.2-38.8-32.7-63.2l-1.4-11.3c-0.5-1.2-0.1-6.3,1.1-15.3c0.9-9,3.7-15.9,8.2-20.6l7.4-8.2c4.3,0,8-1.1,11.4-3.2c3.3-2.1,5.4-3.2,6.4-3.2c22.5,0,40.2,7.8,53.2,23.4l-13.1,0.7c-13.5,1.9-24.6,7.7-33.4,17.4C254.3,614.5,249.2,629.5,249.2,648.2z M191,627.3c4.5,26.7,14.7,50.3,30.5,70.6c18.9,24.6,42,46.7,69.2,66.4c28.6,20.6,57.4,34.7,86.3,42.2l8.5,2.5l6.4,0.7l82.7-3.5c40-4.5,76.2-13.7,108.6-27.7l13.1,13.1l1.8,5.7c6.2,20.6,9.2,32.9,9.2,36.9l-4.3,28.1c-4.3,10.9-10.8,22.1-19.5,33.7c-24.8,32.4-61.9,53.5-111.1,63.2l-58.9,4.2l-159-6.4c-28.6-3.1-61.5-23.1-98.7-60c-36.9-36.9-55.4-89.1-55.4-156.5c0-38.6,8.8-69.9,26.3-94.1c14.7-20.4,35.3-35.5,61.8-45.4L191,627.3z M285.8,633.6c2.6-6.2,6.6-10.4,12.1-12.8l18.8,0.3c3.3,0.7,6.5,2.6,9.6,5.7l6,4.6c2.1,9.7,3.2,19.5,3.2,29.5c0,19.9-5.1,33.1-15.3,39.8c-4,1.2-11.6-2.8-22.7-12.1c-11.1-9.5-16.3-19.9-15.6-31.2C282.8,646.1,284.1,638.1,285.8,633.6z"/><path d="M229.7,520l-7.8,7.8l0.4-8.2L229.7,520z"/></g>
</svg>