<?xml version="1.0" encoding="utf-8"?>
<!-- Svg Vector Icons : http://www.onlinewebfonts.com/icon -->
<!DOCTYPE svg PUBLIC "-//W3C//DTD SVG 1.1//EN" "http://www.w3.org/Graphics/SVG/1.1/DTD/svg11.dtd">
<svg version="1.1" xmlns="http://www.w3.org/2000/svg" xmlns:xlink="http://www.w3.org/1999/xlink" x="0px" y="0px" viewBox="0 0 1000 1000" enable-background="new 0 0 1000 1000" xml:space="preserve">
<metadata> Svg Vector Icons : http://www.onlinewebfonts.com/icon </metadata>
<g><g><g><path d="M304,248.5c2.2,1.2,4.3,2.9,5.9,5.1l159.5,208.7c3.3-1.1,6.5-2.4,10-3.1v-77.3c0-10.6,8.6-19.3,19.3-19.3c10.6,0,19.3,8.6,19.3,19.3v77.3c5.9,1.3,11.6,3.1,16.9,5.4l159.1-219.4c0.7-4.3,1.3-8.7,1.9-13.2c2.8-23.6-11.1-72.2-55.6-105.5c-18.1-11.1-125-76.4-141.6-95.8c-16.7,19.4-123.6,84.7-141.6,95.8c-44.4,33.3-58.3,81.9-55.6,105.5C302.3,237.6,303,243,304,248.5z"/><path d="M156,640.6l252.1-84.9c-0.2-2.4-0.7-4.7-0.7-7.2c0-3.1,0.6-6.1,0.9-9.2l-73.9-24c-10.1-3.3-15.7-14.1-12.4-24.3c3.3-10.1,14.2-15.6,24.3-12.4l73.8,24c4.4-7.6,9.8-14.5,16.1-20.5L279.4,276.9c-1.7-2.2-2.8-4.7-3.4-7.3c-4.4-2.3-8.9-4.5-13.6-6.7c-21.6-9.9-72.1-11.7-117.5,20.2C128.7,296.9,33.6,378.4,10,388.3C23.3,410.1,52.4,532,57.3,552.6c18,52.6,59.9,80.8,83.2,85.4C145.8,639.1,150.9,639.9,156,640.6z"/><path d="M416.4,694.6c-3.8,5.2-9.6,7.9-15.6,7.9c-3.9,0-7.9-1.2-11.3-3.7c-8.6-6.2-10.5-18.3-4.3-26.9l45.6-62.8c-4.5-5.1-8.4-10.6-11.7-16.6l-255.2,86c-2,2-4,4.1-6,6.3c-16.1,17.5-33.5,64.9-17.1,118c8.1,19.6,56.2,135.3,58.3,160.8c24.9-5.9,149.8,4.1,170.9,5.7c55.5-0.8,95.3-32,107-52.7c2.4-4.3,4.6-8.5,6.7-12.7V638.5c-7.6-1.3-14.9-3.4-21.8-6.4L416.4,694.6z"/><path d="M836.3,672.8l-254.9-85.7c-3.8,8.1-8.8,15.5-14.7,22.1l45.6,62.8c6.3,8.6,4.4,20.6-4.3,26.9c-3.4,2.5-7.4,3.7-11.3,3.7c-6,0-11.8-2.8-15.6-7.9L535.7,632c-4.3,1.9-8.8,3.3-13.5,4.5v269.3c1.5,2.9,3.1,5.8,4.8,8.8c11.6,20.7,51.4,51.9,107,52.7c21.1-1.6,146-11.6,170.9-5.7c2-25.5,50.2-141.2,58.2-160.8c16.4-53.1-0.9-100.6-17.1-118.1C842.8,679.3,839.6,676,836.3,672.8z"/><path d="M855.2,279.8c-45.4-32-95.9-30.2-117.5-20.2c-3.4,1.6-6.7,3.2-9.9,4.8L566.2,487.2c4.4,4.8,8.1,10,11.3,15.5l73.9-24c10.1-3.3,21,2.3,24.3,12.4c3.3,10.1-2.3,21-12.4,24.3l-73.9,24c0.3,3.1,0.9,6,0.9,9.2c0,0.3-0.1,0.6-0.1,0.9l259.1,87.1c3.4-0.6,6.8-1.2,10.2-1.9c23.3-4.7,65.3-32.9,83.2-85.5c5-20.6,34-142.5,47.4-164.3C966.4,375.1,871.3,293.5,855.2,279.8z"/><path d="M549.7,562.3c0.1-0.4,0.3-0.8,0.4-1.2c1-4.1,1.7-8.3,1.7-12.7c0-17.4-8.5-32.8-21.6-42.5c-0.3-0.3-0.6-0.5-0.9-0.8c-8.6-6.1-19.1-9.7-30.4-9.7c-1.3,0-2.5,0.3-3.8,0.4c-8.9,0.6-17.2,3.3-24.3,7.9c-0.3,0.2-0.8,0.4-1.1,0.6c-3.7,2.4-6.9,5.4-9.8,8.6c-8.6,9.4-13.9,21.8-13.9,35.5c0,4.8,0.9,9.4,2.1,13.9c0.1,0.4,0.3,0.8,0.4,1.2c6.5,21.9,26.6,37.9,50.5,37.9c0.4,0,0.8-0.1,1.3-0.1c0.4,0,0.8-0.1,1.2-0.1C524.6,600.1,543.8,584,549.7,562.3z"/></g></g><g></g><g></g><g></g><g></g><g></g><g></g><g></g><g></g><g></g><g></g><g></g><g></g><g></g><g></g><g></g></g>
</svg>