<?xml version="1.0" encoding="utf-8"?>
<!-- Svg Vector Icons : http://www.onlinewebfonts.com/icon -->
<!DOCTYPE svg PUBLIC "-//W3C//DTD SVG 1.1//EN" "http://www.w3.org/Graphics/SVG/1.1/DTD/svg11.dtd">
<svg version="1.1" xmlns="http://www.w3.org/2000/svg" xmlns:xlink="http://www.w3.org/1999/xlink" x="0px" y="0px" viewBox="0 0 1000 1000" enable-background="new 0 0 1000 1000" xml:space="preserve">
<metadata> Svg Vector Icons : http://www.onlinewebfonts.com/icon </metadata>
<g><g><g><path d="M829.8,392.3C799.7,337.1,722.9,315,682,304.1c31.2-35.6,94.1-110.4,80-176.2c-6.7-31.2-29.3-55.7-67.1-72.9c-3.4-1.6-14.4-7.6-24.5-13c-33.7-18.3-48.9-26.2-55.8-27.9c-19.9-5-39.1-5.4-56.4-1.3c-70.1,16.5-97.2,101-110.4,143C417.2,130.6,357.6,83,299.2,83c-7.7,0-15.1,0.8-22.2,2.5c-27.2,6.4-49.6,24.7-66.7,54.5c-0.7,1.2-3.6,6.1-7.5,12.6l-0.9,1.5c-18.6,30.9-27.2,45.3-28.9,49C155,242.6,153,278.4,167,309.5c26,57.7,99,82.2,138.3,94.3c-28.4,34.8-84.4,107-69.2,171.6c7.6,31.9,31.1,56.9,70,74.4c2.3,1,14.1,7.7,23.5,13l2,1.1c29.6,16.8,40.3,22.6,45.1,24.1c24.6,7.8,48.1,9.2,69.2,4.3c62.1-14.6,91.2-82.2,104-117c35.7,62.4,97.8,210.1,27.8,398.8l-1.7,4.4l31.1,11.5l1.6-4.4c65-175.1,22.4-318.6-14.4-396.4c38,22.8,72.3,34.3,102.4,34.3c8.5,0,16.7-0.9,24.5-2.7c33.1-7.8,58.9-31.6,76.7-70.8c1-2.3,10.5-18.7,14-24.9c16.2-28.3,21.9-38.4,23.2-42.6C846,449,844.2,418.7,829.8,392.3z M807.8,473c-1.3,3.2-13.6,24.8-20.3,36.5l-0.6,1.1c-9.1,15.9-13.9,24.3-15.3,27.4c-13.9,30.6-33.1,48.9-56.9,54.5c-5.7,1.3-11.8,2-18.2,2c-52.8,0-112.8-46.2-135.9-64.2l-3.6-4.2l-0.9,0.7l-15.7-12.2l-13.8,40c-10.3,29-34.4,97-87.3,109.4c-15.9,3.8-34.2,2.5-53.5-3.6c-3.4-1.3-26.5-14.2-39.8-21.8c-15.1-8.5-24.4-13.8-27.9-15.4c-30.3-13.6-48.3-31.9-53.6-54.6c-12.7-53.8,45.5-124.7,67.4-151.4c4.7-5.8,8.1-9.9,10.1-12.9l9.8-14.8l-16.5-6.6c-3.7-1.5-9.1-3.2-16.1-5.3c-33.7-10.3-103.8-31.7-125.7-80.1c-10.4-23.2-8.5-50.9,5.9-82.4c1.6-3.3,19.4-32.8,27.4-46.1c4.6-7.6,8.1-13.4,8.8-14.7c12.9-22.5,29.2-36.1,48.2-40.7c5-1.2,10.3-1.8,15.8-1.8c49.6,0,108,48.1,133,68.6c6.5,5.4,11.2,9.2,14.6,11.5l14.7,9.7l6.7-16.2c2-4.7,4.1-11.3,6.7-19.8c12.2-39.1,34.9-111.9,89.7-124.8c12.8-3,27.5-2.6,42.7,1.2c4.6,1.3,34.9,17.7,47.8,24.7l1.2,0.6c13.7,7.4,22.3,12,26.3,13.9c29,13.2,46.1,30.8,50.7,52.5c11.7,54.5-50.6,125.2-77.8,156c-5.7,6.5-9.5,10.7-11.5,13.8l-10.1,15l16.8,6.6c4,1.6,9.9,3.2,18.8,5.5c35.5,9.3,109.2,28.8,134.6,75.3C814.9,425.6,816,447.5,807.8,473z"/><path d="M499.8,264.9c-6.8,0-13.6,0.8-20.2,2.4c-47.3,11.2-76.7,58.7-65.6,106c9.4,40,44.7,67.9,85.8,67.9h0c6.7,0,13.6-0.8,20.2-2.4c22.9-5.4,42.3-19.4,54.7-39.5c12.4-20,16.3-43.7,10.9-66.6C576.2,292.8,540.9,264.9,499.8,264.9z M547.4,382.4c-7.9,12.7-20.2,21.6-34.7,25c-4.2,1-8.5,1.5-12.8,1.5c-26.1,0-48.4-17.7-54.4-43.1c-7.1-30,11.6-60.2,41.6-67.2c4.2-1,8.5-1.5,12.8-1.5c26.1,0,48.4,17.7,54.4,43.1C557.7,354.7,555.2,369.7,547.4,382.4z"/></g></g><g></g><g></g><g></g><g></g><g></g><g></g><g></g><g></g><g></g><g></g><g></g><g></g><g></g><g></g><g></g></g>
</svg>